# xmcd
#
# Track frame offsets:
#	150
#	14761
#	36964
#	53800
#	65038
#	82583
#	91429
#	107028
#	128004
#	146120
#	157504
#	170739
#
# Disc length: 2467 seconds
# Revision: 0
# Processed by: cddbd v1.5.2PL0 Copyright (c) Steve Scherf et al.
# Submitted via: dBpowerAMP V12.0
#
DISCID=9b09a10c
DTITLE=Lisa Aschmann - The Stars
DYEAR=2002
DGENRE=Country
TTITLE0=The Unexpected
TTITLE1=He Must Have Been Thinking Of You
TTITLE2=The Spiral Arms
TTITLE3=Buzzed
TTITLE4=Homesick For New York
TTITLE5='Til The Cows Come Home
TTITLE6=Loving My Baby Tonight
TTITLE7=Slow Hurry
TTITLE8=Man Of My Dreams
TTITLE9=Happy People
TTITLE10=Just See If I Don't
TTITLE11=What Evolves
EXTD=
EXTT0=
EXTT1=
EXTT2=
EXTT3=
EXTT4=
EXTT5=
EXTT6=
EXTT7=
EXTT8=
EXTT9=
EXTT10=
EXTT11=
PLAYORDER=
